# AST/ASF file generated using VICON BodyLanguage
# -----------------------------------------------
:version 1.10
:name VICON
:units
  mass 1.0
  length 0.45
  angle deg
:documentation
   .ast/.asf automatically generated from VICON data using
   VICON BodyBuilder and BodyLanguage model FoxedUp or BRILLIANT.MOD
:root
   order TX TY TZ RX RY RZ
   axis XYZ
   position 0 0 0  
   orientation 0 0 0 
:bonedata
  begin
     id 1 
     name lhipjoint
     direction 0.623415 -0.642378 0.445763 
     length 2.49859 
     axis 0 0 0  XYZ
  end
  begin
     id 2 
     name lfemur
     direction 0.34202 -0.939693 0  
     length 6.69689  
     axis 0 0 20  XYZ
    dof rx ry rz
    limits (-160.0 20.0)
           (-70.0 70.0)
           (-60.0 70.0)
  end
  begin
     id 3 
     name ltibia
     direction 0.34202 -0.939693 0   
     length 7.37574   
     axis 0 0 20   XYZ
    dof rx
    limits (-10.0 170.0)
  end
  begin
     id 4 
     name lfoot
     direction 0.084323 -0.231675 0.969132   
     length 2.09111   
     axis -90 7.62852e-016 20   XYZ
    dof rx rz
    limits (-45.0 90.0)
           (-70.0 20.0)
  end
  begin
     id 5 
     name ltoes
     direction 1.5357e-011 -4.21957e-011 1   
     length 1.04989   
     axis -90 7.62852e-016 20   XYZ
    dof rx
    limits (-90.0 20.0)
  end
  begin
     id 6 
     name rhipjoint
     direction -0.605402 -0.653903 0.45376   
     length 2.45455  
     axis 0 0 0  XYZ 
  end
  begin
     id 7 
     name rfemur
     direction -0.34202 -0.939693 0   
     length 6.64523   
     axis 0 0 -20   XYZ
    dof rx ry rz
    limits (-160.0 20.0)
           (-70.0 70.0)
           (-70.0 60.0)
  end
  begin
     id 8 
     name rtibia
     direction -0.34202 -0.939693 0   
     length 7.3339   
     axis 0 0 -20   XYZ
    dof rx
    limits (-10.0 170.0)
 end
 begin
     id 9 
     name rfoot
     direction -0.120854 -0.332043 0.93549   
     length 2.23135  
     axis -90 -7.62852e-016 -20   XYZ
    dof rx rz
    limits (-45.0 90.0)
           (-20.0 70.0)
  end
  begin
     id 10 
     name rtoes
     direction -1.53563e-011 -4.21914e-011 1   
     length 1.10614   
     axis -90 -7.62852e-016 -20   XYZ
    dof rx
    limits (-90.0 20.0)
  end
  begin
     id 11 
     name lowerback
     direction 0.0319682 0.998615 -0.0417941   
     length 2.02718   
     axis 0 0 0   XYZ
    dof rx ry rz
    limits (-20.0 45.0)
           (-30.0 30.0)
           (-30.0 30.0)
  end
  begin
     id 12 
     name upperback
     direction 7.63181e-005 0.995808 0.0914691   
     length 1.97539   
     axis 0 0 0   XYZ
    dof rx ry rz
    limits (-20.0 45.0)
           (-30.0 30.0)
           (-30.0 30.0)
  end
  begin
     id 13 
     name thorax
     direction -0.016423 0.993627 0.111514   
     length 2.00349   
     axis 0 0 0   XYZ
    dof rx ry rz
    limits (-20.0 45.0)
           (-30.0 30.0)
           (-30.0 30.0)
  end
  begin
     id 14 
     name lowerneck
     direction -0.174763 0.981668 -0.0760716   
     length 1.71436   
     axis 0 0 0   XYZ
    dof rx ry rz
    limits (-20.0 45.0)
           (-30.0 30.0)
           (-30.0 30.0)
  end
  begin
     id 15 
     name upperneck
     direction 0.345458 0.934587 -0.0848868   
     length 1.72805   
     axis 0 0 0   XYZ
    dof rx ry rz
    limits (-20.0 45.0)
           (-30.0 30.0)
           (-30.0 30.0)
  end
  begin
     id 16
     name head
     direction 0.13001 0.989848 -0.0574291  
     length 1.767  
     axis 0 0 0   XYZ
    dof rx ry rz
    limits (-20.0 45.0)
           (-30.0 30.0)
           (-30.0 30.0)
  end
  begin
     id 17 
     name lclavicle
     direction 0.952951 0.290122 0.0878234  
     length 3.54654  
     axis 0 0 0   XYZ
    dof ry rz
    limits (-20.0 10.0)
           (0.0 20.0)
  end
  begin
     id 18 
     name lhumerus
     direction 1 -4.48957e-011 -4.56525e-028   
     length 5.19807   
     axis 180 -30 -90   XYZ
    dof rx ry rz
    limits (-60.0 90.0)
           (-90.0 90.0)
           (-90.0 90.0)
  end
  begin
     id 19
     name lradius
     direction 1 -4.48979e-011 -2.0317e-027   
     length 3.0937   
     axis 180 -30 -90   XYZ
    dof rx
    limits (-10.0 170.0)
  end
  begin
     id 20
     name lwrist
     direction 1 -4.48953e-011 -3.05809e-027   
     length 1.54685   
     axis 8.48514e-016 90 90   XYZ
    dof ry
    limits (-180.0 0.0)
 end
  begin
     id 21 
     name lhand
     direction 1 -4.48952e-011 -6.11639e-027   
     length 0.672632   
     axis 3.9013e-015 90 90   XYZ
    dof rx rz
    limits (-90.0 90.0)
           (-45.0 45.0)
  end
  begin
     id 22 
     name lfingers
     direction 1 -4.48925e-011 -1.22426e-026   
     length 0.542293   
     axis 7.80276e-015 90 90   XYZ
    dof rx
    limits (0.0 90.0)
  end
  begin
     id 23
     name lthumb
     direction 0.707107 -6.3486e-011 0.707107   
     length 0.778628   
     axis -90 45 5.37419e-014   XYZ
    dof rx rz
    limits (-45.0 45.0)
           (-45.0 45.0)
  end
  begin
     id 24 
     name rclavicle
     direction -0.960732 0.273675 -0.0457849   
     length 3.52079  
     axis 0 0 0   XYZ 
    dof ry rz
    limits (-10.0 20.0)
           (-20.0 0.0)
  end
  begin
     id 25 
     name rhumerus
     direction -1 -4.48976e-011 -1.63613e-027  
     length 5.45222   
     axis 180 30 90   XYZ
    dof rx ry rz
    limits (-90.0 60.0)
           (-90.0 90.0)
           (-90.0 90.0)
  end
  begin
     id 26 
     name rradius
     direction -1 -4.48957e-011 -7.00033e-028   
     length 3.01284   
     axis 180 30 90   XYZ
    dof rx
    limits (-10.0 170.0)
  end
  begin
     id 27 
     name rwrist
     direction -1 -4.48983e-011 -3.05543e-027   
     length 1.50642   
     axis 8.48514e-016 -90 -90   XYZ
    dof ry
    limits (-180.0 0.0)
  end
  begin
     id 28
     name rhand
     direction -1 -4.48984e-011 -6.11072e-027   
     length 0.622296   
     axis 3.9013e-015 -90 -90   XYZ
    dof rx rz
    limits (-90.0 90.0)
           (-45.0 45.0)
  end
  begin
     id 29
     name rfingers
     direction -1 -4.48865e-011 -1.22637e-026   
     length 0.501711   
     axis 7.80276e-015 -90 -90   XYZ
    dof rx
    limits (0.0 90.0)
  end
  begin
     id 30
     name rthumb
     direction -0.707107 -6.34932e-011 0.707107   
     length 0.72036   
     axis -90 -45 -5.37419e-014   XYZ
    dof rx rz
    limits (-45.0 45.0)
           (-45.0 45.0)
  end
:hierarchy
  begin
    root lhipjoint rhipjoint lowerback
    lhipjoint lfemur
    lfemur ltibia
    ltibia lfoot
    lfoot ltoes
    rhipjoint rfemur
    rfemur rtibia
    rtibia rfoot
    rfoot rtoes
    lowerback upperback
    upperback thorax
    thorax lowerneck lclavicle rclavicle
    lowerneck upperneck
    upperneck head
    lclavicle lhumerus
    lhumerus lradius
    lradius lwrist
    lwrist lhand lthumb
    lhand lfingers
    rclavicle rhumerus
    rhumerus rradius
    rradius rwrist
    rwrist rhand rthumb
    rhand rfingers
  end

#!OML:ASF H:\Not Pregnant\Project 1\Capture day 1\Session 1\non-pregnant.ASF
:FULLY-SPECIFIED
:DEGREES
285
root 6.79998 14.9468 19.2638 -343.373 -14.4649 -361.415
lowerback 4.58712 -1.66736 2.85823
upperback -8.64983 -1.80109 2.03254
thorax -11.9095 -1.03084 0.873275
lowerneck 26.9716 -13.8935 -28.5152
upperneck -25.5623 -22.5309 46.3786
head -1.20776 -15.172 24.9868
rclavicle 3.26038e-014 5.1684e-015
rhumerus -44.7386 -17.8646 -66.8426
rradius 27.3375
rwrist 2.33946
rhand -28.7669 -14.2183
rfingers 7.12502
rthumb -2.12658 -44.1875
lclavicle 3.26038e-014 5.1684e-015
lhumerus -53.6555 10.3989 80.3479
lradius 50.9867
lwrist 67.7775
lhand -50.8546 -24.3249
lfingers 7.12502
lthumb -23.4091 4.27135
rfemur -14.353 17.7114 2.89135
rtibia 34.7895
rfoot -29.7141 -7.3483
rtoes -32.4543
lfemur -33.7032 11.9983 -5.6477
ltibia 45.4009
lfoot -23.2092 3.6024
ltoes -47.8921
286
root 6.95322 15.0175 19.3916 -343.214 -16.0728 -361.141
lowerback 4.26179 -1.29192 2.59852
upperback -8.85069 -1.33164 2.02468
thorax -11.9263 -0.78485 0.936243
lowerneck 27.2002 -14.0612 -28.5682
upperneck -25.7712 -22.8069 46.3464
head -1.18054 -15.3202 24.8885
rclavicle -4.32015e-014 -1.35174e-014
rhumerus -46.1414 -17.7126 -65.0578
rradius 27.2799
rwrist -1.25129
rhand -29.0979 -14.1671
rfingers 7.12502
rthumb -2.44623 -44.1328
lclavicle -4.32015e-014 -1.35174e-014
lhumerus -54.2849 8.84807 82.8659
lradius 51.8973
lwrist 62.3761
lhand -49.256 -21.7036
lfingers 7.12502
lthumb -21.8748 7.07994
rfemur -14.868 18.0608 1.9138
rtibia 34.9063
rfoot -27.6701 -7.54407
rtoes -30.5533
lfemur -32.6807 13.2188 -6.98315
ltibia 44.5692
lfoot -23.2412 3.48476
ltoes -47.7243
287
root 7.10213 15.0917 19.518 -342.947 -17.7884 -361.021
lowerback 3.82945 -0.889107 2.45139
upperback -9.02198 -0.816319 2.03113
thorax -11.85 -0.525602 0.945254
lowerneck 27.3568 -14.2024 -28.5848
upperneck -25.9602 -23.0178 46.3399
head -1.16395 -15.4366 24.8189
rclavicle -1.00914e-014 7.55382e-015
rhumerus -47.4112 -17.6484 -63.2291
rradius 27.0539
rwrist -2.90868
rhand -29.1 -14.1361
rfingers 7.12502
rthumb -2.44831 -44.1018
lclavicle -1.00914e-014 7.55382e-015
lhumerus -54.9361 7.40898 85.1752
lradius 52.8914
lwrist 56.7901
lhand -47.3435 -20.9832
lfingers 7.12502
lthumb -20.0374 8.00363
rfemur -15.7045 18.2318 1.14709
rtibia 35.3357
rfoot -25.5079 -7.79102
rtoes -28.0215
lfemur -31.6994 14.4572 -8.15926
ltibia 43.6724
lfoot -23.1622 3.51029
ltoes -47.6434
288
root 7.24683 15.1698 19.643 -342.581 -19.5641 -361.06
lowerback 3.30865 -0.47882 2.4346
upperback -9.16591 -0.280711 2.0546
thorax -11.6924 -0.266737 0.900487
lowerneck 27.474 -14.2966 -28.5902
upperneck -26.1207 -23.1566 46.3633
head -1.15969 -15.5194 24.7999
rclavicle 3.27777e-014 8.74653e-015
rhumerus -48.5509 -17.5041 -61.4995
rradius 26.7003
rwrist -2.72646
rhand -28.8238 -14.3009
rfingers 7.12502
rthumb -2.18158 -44.2695
lclavicle 3.27777e-014 8.74653e-015
lhumerus -55.6272 6.12061 87.2245
lradius 54.0449
lwrist 51.5734
lhand -45.2577 -22.0642
lfingers 7.12502
lthumb -18.0316 7.12
rfemur -16.765 18.1876 0.629542
rtibia 35.9794
rfoot -23.3592 -8.05839
rtoes -25.1001
lfemur -30.7631 15.6369 -9.16894
ltibia 42.725
lfoot -22.9504 3.68525
ltoes -47.6461
289
root 7.38693 15.2521 19.767 -342.145 -21.3648 -361.237
lowerback 2.73228 -0.0753493 2.53593
upperback -9.27354 0.252679 2.08749
thorax -11.4609 -0.0178902 0.806265
lowerneck 27.5452 -14.3489 -28.5866
upperneck -26.2361 -23.2333 46.4137
head -1.15759 -15.573 24.8203
rclavicle -5.66847e-014 -1.59028e-015
rhumerus -49.565 -17.4309 -59.7674
rradius 26.1524
rwrist -0.627722
rhand -28.2642 -14.5398
rfingers 7.12502
rthumb -1.6411 -44.5132
lclavicle -5.66847e-014 -1.59028e-015
lhumerus -56.3462 4.99094 88.9828
lradius 55.3453
lwrist 47.0572
lhand -42.6357 -24.424
lfingers 7.12502
lthumb -15.5075 4.97408
rfemur -17.9397 17.9087 0.377655
rtibia 36.7544
rfoot -21.4223 -8.26044
rtoes -22.1354
lfemur -29.852 16.6851 -10.023
ltibia 41.7409
lfoot -22.5887 3.9954
ltoes -47.7206
290
root 7.52221 15.3377 19.8895 -341.671 -23.1736 -361.507
lowerback 2.12604 0.312124 2.7126
upperback -9.34884 0.765605 2.12158
thorax -11.1735 0.216 0.681651
lowerneck 27.5724 -14.3543 -28.5791
upperneck -26.2784 -23.2487 46.4727
head -1.15411 -15.5943 24.8655
rclavicle 1.01691e-014 5.00937e-014
rhumerus -50.4753 -17.3496 -58.0837
rradius 25.508
rwrist 2.98512
rhand -27.4579 -14.9227
rfingers 7.12502
rthumb -0.862332 -44.9007
lclavicle 1.01691e-014 5.00937e-014
lhumerus -57.1126 3.99216 90.4963
lradius 56.8831
lwrist 43.7823
lhand -39.4334 -27.5972
lfingers 7.12502
lthumb -12.4216 2.01374
rfemur -19.1573 17.3784 0.370126
rtibia 37.6154
rfoot -19.8631 -8.28309
rtoes -19.4598
lfemur -28.954 17.5534 -10.7631
ltibia 40.7384
lfoot -22.0643 4.44861
ltoes -47.8491
291
root 7.65202 15.4246 20.0097 -341.199 -24.9597 -361.811
lowerback 1.5205 0.670341 2.90775
upperback -9.39487 1.23479 2.14686
thorax -10.8519 0.428442 0.550675
lowerneck 27.5628 -14.3193 -28.5677
upperneck -26.238 -23.2146 46.5262
head -1.14633 -15.5877 24.9196
rclavicle -2.16178e-015 -3.97569e-014
rhumerus -51.306 -17.3238 -56.3801
rradius 24.8301
rwrist 7.73486
rhand -26.397 -15.3599
rfingers 7.12502
rthumb 0.162292 -45.3396
lclavicle -2.16178e-015 -3.97569e-014
lhumerus -57.9102 3.12062 91.7628
lradius 58.6915
lwrist 41.8004
lhand -35.63 -30.4345
lfingers 7.12502
lthumb -8.75272 -0.636032
rfemur -20.352 16.598 0.580302
rtibia 38.5427
rfoot -18.7632 -8.09567
rtoes -17.4797
lfemur -28.0691 18.1856 -11.435
ltibia 39.7423
lfoot -21.3781 5.0352
ltoes -48.0216
292
root 7.77596 15.511 20.1268 -340.772 -26.7057 -362.101
lowerback 0.941499 0.991442 3.07714
upperback -9.41748 1.6475 2.15777
thorax -10.5195 0.616646 0.43231
lowerneck 27.5349 -14.2453 -28.5625
upperneck -26.1064 -23.1434 46.5631
head -1.13128 -15.5578 24.9733
rclavicle -2.69602e-015 -3.89618e-014
rhumerus -52.0758 -17.357 -54.6453
rradius 24.1939
rwrist 13.113
rhand -25.1083 -15.7729
rfingers 7.12502
rthumb 1.40696 -45.748
lclavicle -2.69602e-015 -3.89618e-014
lhumerus -58.7356 2.33636 92.8244
lradius 60.726
lwrist 40.9079
lhand -31.4043 -32.4121
lfingers 7.12502
lthumb -4.67355 -2.48368
rfemur -21.4732 15.6234 0.977422
rtibia 39.5326
rfoot -18.1116 -7.70517
rtoes -16.3339
lfemur -27.1896 18.5598 -12.072
ltibia 38.7833
lfoot -20.5497 5.72292
ltoes -48.1968
293
root 7.89396 15.5947 20.2399 -340.424 -28.3806 -362.334
lowerback 0.409503 1.26806 3.19038
upperback -9.41935 1.99364 2.14532
thorax -10.1928 0.777398 0.332713
lowerneck 27.4984 -14.1431 -28.5581
upperneck -25.8963 -23.0471 46.5837
head -1.10964 -15.512 25.0221
rclavicle -2.83889e-014 -1.82882e-014
rhumerus -52.7919 -17.4667 -52.8867
rradius 23.6537
rwrist 18.663
rhand -23.6329 -16.1056
rfingers 7.12502
rthumb 2.83189 -46.0665
lclavicle -2.83889e-014 -1.82882e-014
lhumerus -59.553 1.60555 93.693
lradius 62.8959
lwrist 40.6447
lhand -27.0696 -33.3271
lfingers 7.12502
lthumb -0.487263 -3.34794
rfemur -22.4803 14.5224 1.52818
rtibia 40.5791
rfoot -17.802 -7.2069
rtoes -15.9203
lfemur -26.3354 18.6776 -12.705
ltibia 37.9016
lfoot -19.6115 6.46016
ltoes -48.3566
294
root 8.00618 15.6747 20.3486 -340.168 -29.9474 -362.501
lowerback -0.0699184 1.48831 3.24787
upperback -9.40861 2.25998 2.11583
thorax -9.88579 0.903777 0.257219
lowerneck 27.4926 -14.0093 -28.5723
upperneck -25.6282 -22.9349 46.5889
head -1.08708 -15.4565 25.0786
rclavicle -6.52386e-014 5.56597e-015
rhumerus -53.4251 -17.4589 -51.3184
rradius 23.2873
rwrist 23.7342
rhand -22.0888 -16.4024
rfingers 7.12502
rthumb 4.32304 -46.3382
lclavicle -6.52386e-014 5.56597e-015
lhumerus -60.3452 0.909566 94.3795
lradius 65.0794
lwrist 40.4729
lhand -22.9504 -33.3574
lfingers 7.12502
lthumb 3.49096 -3.40624
rfemur -23.3416 13.3583 2.22435
rtibia 41.6663
rfoot -17.687 -6.71944
rtoes -16.0843
lfemur -25.5366 18.5634 -13.3334
ltibia 37.1428
lfoot -18.5885 7.19322
ltoes -48.5055
295
root 8.11299 15.7491 20.454 -340.029 -31.3922 -362.606
lowerback -0.506755 1.65042 3.27776
upperback -9.36815 2.44587 2.0667
thorax -9.57268 0.993123 0.185437
lowerneck 27.4882 -13.8532 -28.6123
upperneck -25.2858 -22.8195 46.5839
head -1.04525 -15.3965 25.1302
rclavicle -8.75771e-014 -7.95139e-015
rhumerus -53.9346 -17.3019 -50.0499
rradius 23.0782
rwrist 27.9227
rhand -20.6105 -16.6738
rfingers 7.12502
rthumb 5.75037 -46.5758
lclavicle -8.75771e-014 -7.95139e-015
lhumerus -61.0767 0.22902 94.8809
lradius 67.1315
lwrist 39.8453
lhand -19.2342 -32.8025
lfingers 7.12502
lthumb 7.07904 -2.94086
rfemur -24.0093 12.1977 3.05213
rtibia 42.768
rfoot -17.6162 -6.32314
rtoes -16.5782
lfemur -24.794 18.276 -13.9471
ltibia 36.5577
lfoot -17.5338 7.87736
ltoes -48.6634
296
root 8.21482 15.8176 20.5564 -339.993 -32.6858 -362.669
lowerback -0.909717 1.74989 3.3133
upperback -9.29759 2.54771 2.00633
thorax -9.24764 1.04122 0.106457
lowerneck 27.4831 -13.6736 -28.6856
upperneck -24.8739 -22.7011 46.5723
head -0.982744 -15.3324 25.1814
rclavicle 1.91951e-014 2.54444e-014
rhumerus -54.2801 -16.9119 -49.2303
rradius 23.001
rwrist 30.8147
rhand -19.3707 -17.0249
rfingers 7.12502
rthumb 6.94728 -46.8909
lclavicle 1.91951e-014 2.54444e-014
lhumerus -61.7357 -0.466489 95.242
lradius 69.0298
lwrist 38.5946
lhand -16.2471 -31.9342
lfingers 7.12502
lthumb 9.96178 -2.18991
rfemur -24.4667 11.0738 4.01275
rtibia 43.8524
rfoot -17.535 -6.03836
rtoes -17.4093
lfemur -24.1424 17.8666 -14.5183
ltibia 36.194
lfoot -16.4771 8.43658
ltoes -48.8234
297
root 8.31198 15.8802 20.656 -340.054 -33.8173 -362.699
lowerback -1.28449 1.79073 3.36554
upperback -9.19731 2.57139 1.93453
thorax -8.90763 1.05008 0.012049
lowerneck 27.4791 -13.4832 -28.7773
upperneck -24.4172 -22.5863 46.5552
head -0.905818 -15.2687 25.2286
rclavicle -2.83765e-014 -1.51076e-014
rhumerus -54.4546 -16.2033 -48.9801
rradius 23.0354
rwrist 32.0911
rhand -18.5573 -17.4602
rfingers 7.12502
rthumb 7.73245 -47.2988
lclavicle -2.83765e-014 -1.51076e-014
lhumerus -62.3192 -1.21656 95.5101
lradius 70.6788
lwrist 36.6666
lhand -14.0691 -31.1711
lfingers 7.12502
lthumb 12.0624 -1.5388
rfemur -24.7101 10.0069 5.08545
rtibia 44.8858
rfoot -17.4753 -5.79927
rtoes -18.6573
lfemur -23.6134 17.3954 -15.0399
ltibia 36.0921
lfoot -15.4452 8.80529
ltoes -49.0047
298
root 8.40444 15.9369 20.7529 -340.182 -34.8028 -362.72
lowerback -1.64038 1.7827 3.44232
upperback -9.07167 2.53043 1.85685
thorax -8.55243 1.02601 -0.0982814
lowerneck 27.4593 -13.2928 -28.8607
upperneck -23.9175 -22.4722 46.5156
head -0.821693 -15.2012 25.249
rclavicle 3.36567e-014 -2.70347e-014
rhumerus -54.4689 -15.2389 -49.2642
rradius 23.1245
rwrist 31.7652
rhand -18.2894 -18.0733
rfingers 7.12502
rthumb 7.99102 -47.9022
lclavicle 3.36567e-014 -2.70347e-014
lhumerus -62.8444 -2.04964 95.7444
lradius 72.0862
lwrist 34.3736
lhand -12.8399 -30.8373
lfingers 7.12502
lthumb 13.2475 -1.27828
rfemur -24.7656 9.00716 6.26081
rtibia 45.8391
rfoot -17.4485 -5.46788
rtoes -20.1999
lfemur -23.2301 16.9376 -15.4938
ltibia 36.2778
lfoot -14.4558 8.93661
ltoes -49.2052
